<svg viewBox="0 0 256 256" xml:space="preserve" xmlns="http://www.w3.org/2000/svg"><path d="M109.083 183.336c-1.521 0-3-.542-4.166-1.541l-37.83-32.426a6.402 6.402 0 0 1-.694-9.025 6.403 6.403 0 0 1 9.025-.693l32.732 28.058 71.542-91.981a6.4 6.4 0 0 1 10.103 7.859l-75.663 97.279a6.394 6.394 0 0 1-5.049 2.47zM256 128C256 57.42 198.58 0 128 0S0 57.42 0 128s57.42 128 128 128 128-57.42 128-128zm-12.8 0c0 63.521-51.679 115.2-115.2 115.2-63.522 0-115.2-51.679-115.2-115.2C12.8 64.478 64.478 12.8 128 12.8c63.521 0 115.2 51.678 115.2 115.2z" fill="#29a32f" class="fill-000000"></path></svg>