<svg viewBox="0 0 60 60" xmlns="http://www.w3.org/2000/svg"><path d="m59.71 27.758-5.492-22C53.345 2.263 50.904.005 48 .005H33c-2.766 0-4.663 1.084-6.497 2.132-1.68.96-3.269 1.868-5.503 1.868h-2a1 1 0 1 0 0 2h2c2.765 0 4.662-1.084 6.496-2.132 1.681-.961 3.27-1.868 5.504-1.868h15c2.376 0 3.79 2.282 4.277 4.237l5.497 22.019c.353 1.31.305 2.27-.144 2.857-.558.729-1.738.882-2.63.882H41c-2.804 0-5 2.196-5 5v14c0 4.448-2.552 7-7 7-1.626 0-3-1.374-3-3V43c0-5.83-4.318-10.467-10-10.957V1a1 1 0 0 0-1-1H1a1 1 0 0 0-1 1v38a1 1 0 0 0 1 1h14a1 1 0 0 0 1-1v-2a1 1 0 1 0-2 0v1H2V2h12v31a1 1 0 0 0 1 1c5.046 0 9 3.953 9 9v12c0 2.757 2.243 5 5 5 5.551 0 9-3.448 9-9V37c0-1.682 1.317-3 3-3h14c1.925 0 3.383-.576 4.218-1.665.847-1.106 1.011-2.652.492-4.577M8 30c1.103 0 2 .898 2 2 0 1.103-.897 2-2 2s-2-.897-2-2c0-1.102.897-2 2-2" fill="#ffbca2" fill-rule="evenodd" class="fill-000000"></path></svg>