<?xml version="1.0" ?><svg viewBox="0 0 256 256" xmlns="http://www.w3.org/2000/svg"><rect fill="none" height="256" width="256"/><path d="M40,112H216a0,0,0,0,1,0,0v88a8,8,0,0,1-8,8H48a8,8,0,0,1-8-8V112A0,0,0,0,1,40,112Z" fill="none" stroke="#000" stroke-linecap="round" stroke-linejoin="round" stroke-width="12"/><path d="M40,112,210,66.4l-8.3-30.9a7.9,7.9,0,0,0-9.8-5.6L37.4,71.3a8,8,0,0,0-5.7,9.8Z" fill="none" stroke="#000" stroke-linecap="round" stroke-linejoin="round" stroke-width="12"/><line fill="none" stroke="#000" stroke-linecap="round" stroke-linejoin="round" stroke-width="12" x1="130.1" x2="179.1" y1="46.4" y2="74.7"/><line fill="none" stroke="#000" stroke-linecap="round" stroke-linejoin="round" stroke-width="12" x1="60.6" x2="109.5" y1="65.1" y2="93.4"/></svg>